<svg version="1.0" width="156" height="35" viewBox="0 0 156 35" fill="none" xmlns="http://www.w3.org/2000/svg">
<g transform="translate(0.000000,274.000000) scale(0.100000,-0.100000)" fill="#000000" stroke="none"> <path d="M1097 1763 c-15 -7 -25 -18 -22 -24 4 -5 -5 -23 -19 -40 -31 -36 -65 -111 -68 -148 -1 -14 5 -37 12 -51 14 -25 14 -24 21 26 10 81 20 92 74 84 60 -9 66 -18 30 -44 -45 -32 -88 -76 -81 -83 3 -3 15 6 27 20 11 15 29 27 39 27 10 0 31 11 46 23 l27 24 -21 21 c-12 12 -22 24 -22 26 0 2 28 7 62 10 71 8 88 18 88 51 0 26 -43 65 -71 65 -28 0 -23 -17 6 -24 31 -8 32 -31 1 -51 -31 -21 -159 -56 -169 -46 -4 4 10 32 31 62 33 47 42 54 66 51 19 -3 26 0 21 7 -3 6 -11 9 -16 6 -5 -4 -9 -2 -9 3 0 18 -25 20 -53 5z m183 -77 c0 -16 -24 -38 -33 -30 -7 7 14 44 25 44 5 0 8 -6 8 -14z"/> <path d="M890 1760 c0 -5 -12 -10 -26 -10 -55 0 -115 -23 -157 -61 -35 -32 -39 -40 -27 -48 12 -8 16 -5 20 12 3 12 24 32 47 45 43 23 130 44 138 33 8 -15 -69 -152 -110 -195 -49 -52 -83 -59 -108 -23 -13 18 -16 19 -16 5 -1 -9 11 -26 25 -37 21 -16 30 -18 48 -10 32 16 136 132 136 152 0 9 6 17 14 17 7 0 26 10 40 21 21 16 24 24 15 30 -14 8 20 25 74 36 23 5 26 3 21 -12 -5 -13 -3 -16 7 -13 8 2 15 14 17 26 3 20 -1 22 -52 22 -30 0 -58 5 -61 10 -3 6 -15 10 -26 10 -10 0 -19 -4 -19 -10z"/> <path d="M1658 1638 c16 -16 16 -154 0 -164 -9 -6 -5 -10 12 -14 32 -9 44 -2 30 15 -6 8 -10 31 -8 52 3 33 7 38 31 41 26 3 27 1 27 -40 0 -24 -5 -49 -12 -56 -7 -7 -10 -12 -7 -13 43 -6 59 -6 59 1 0 5 -4 12 -10 15 -5 3 -10 28 -10 55 0 40 -4 50 -20 55 -11 3 -29 3 -40 0 -17 -6 -20 -2 -20 29 0 30 -3 36 -22 36 -17 0 -19 -3 -10 -12z"/> <path d="M1320 1606 c0 -8 -6 -17 -12 -20 -10 -5 -10 -7 0 -12 7 -3 12 -25 12 -55 0 -31 5 -51 13 -54 30 -10 50 -9 54 3 3 7 -5 12 -21 12 -24 0 -26 3 -26 45 0 38 3 45 20 45 11 0 20 5 20 10 0 6 -9 10 -21 10 -15 0 -19 5 -15 15 3 9 0 15 -9 15 -8 0 -15 -6 -15 -14z"/> <path d="M1416 1568 c-21 -30 -20 -71 2 -91 20 -18 82 -23 82 -7 0 6 -15 10 -34 10 -22 0 -36 6 -40 16 -9 24 -9 24 33 24 47 0 55 9 40 44 -16 34 -61 36 -83 4z m67 -12 c4 -10 -4 -15 -24 -18 -33 -5 -40 -2 -32 18 7 18 49 18 56 0z"/> <path d="M1546 1568 c-17 -24 -21 -65 -8 -86 10 -15 61 -31 80 -25 22 8 12 23 -15 23 -42 0 -55 13 -51 51 2 27 8 35 26 37 13 2 30 -2 38 -8 11 -10 14 -9 14 9 0 31 -63 30 -84 -1z"/> </g> </svg> 
</svg>
